<?xml version="1.0" encoding="utf-8"?>
<!-- Generator: Adobe Illustrator 15.0.2, SVG Export Plug-In . SVG Version: 6.00 Build 0)  -->
<!DOCTYPE svg PUBLIC "-//W3C//DTD SVG 1.1//EN" "http://www.w3.org/Graphics/SVG/1.1/DTD/svg11.dtd">
<svg version="1.1" id="Layer_1" xmlns="http://www.w3.org/2000/svg" xmlns:xlink="http://www.w3.org/1999/xlink" x="0px" y="0px"
	 width="571.7px" height="552.9px" viewBox="0 0 571.7 552.9" style="enable-background:new 0 0 571.7 552.9;" xml:space="preserve"
	>
<style type="text/css">
<![CDATA[
	.st0{clip-path:url(#SVGID_2_);}
	.st1{fill:#FFFFFF;}
]]>
</style>
<polygon points="0,115.5 285.9,57.7 571.7,0 478.8,276.4 385.9,552.9 193,334.2 "/>
<g>
	<defs>
		<polygon id="SVGID_1_" points="0,115.5 285.9,57.7 571.7,0 478.8,276.4 385.9,552.9 193,334.2 		"/>
	</defs>
	<clipPath id="SVGID_2_">
		<use xlink:href="#SVGID_1_"  style="overflow:visible;"/>
	</clipPath>
	<g class="st0">
		<g>
			<path class="st1" d="M184.5,75.8l9.8-1.3l15.1,7.9l-0.4-4.9c17.9,0.9,31.3,7.4,40.3,19.5c11.3-1.5,27.6,31.2,48.8,98l53.9-111.7
				l4.5-5.6l4.9-0.7l0.4,4.9l-53,131.4l9.8-1.3c37.7-107.9,61.5-162.4,71.3-163.7l15.1,7.9l-0.4-4.9c14-1.9,32.7,12.2,56.2,42.3
				l0.5,14.8l-4.5,5.6l5,4.3l0.9,19.8l-9.8,1.3L464,168l-2.3,55l0.5,14.8l5.2,4.3l0.1,5l-9.1,11.1l9.9,8.6l-9,11.1l9.9,8.6l-4.5,5.6
				l-4.9,0.6l5.2,4.3l6.2,138.5c-9.8,1.3-14.4,6.9-13.9,16.8c-9.8,1.3-14.4,10.2-13.7,26.7l-14.7,2l-30.2-15.9l3.6-30.3l-11.1-28.4
				l5.1-214.6c-14,19.2-27.1,57.5-39.2,114.7c0.8,19.2-5.1,33.3-17.8,42.2l-4.9,0.6l-0.4-4.9l4.8-5.6l-0.1-5l-5.3-4.3l9.3-11.2
				l-0.8-14.8l-9.8,1.3c1,18-4.9,32.1-17.8,42.2l-4.9,0.7l-25.4-21.5c-8.6,1.2-15.8-12.8-21.4-41.9c-21.2-31.7-32.1-55.1-32.8-70.3
				l-4.9,0.7l-2.3,60l1.8,39.6l-4.1,15.5l5.8,24.1l5.1,108.8c-6.5,0.9-9.6,6.3-9.2,16.2l-23.2,28l-4.9,0.7l-35-10.3l3.9-25.4
				l-7.4-53.7l-1.2-24.7l4.5-5.6l-5-4.3l-0.1-5c-2.2-50.4,0.2-105.5,7.3-165.2l4.9-0.7l-5.2-4.3l-0.1-5l4-20.4l-6-19.1l-0.1-5
				l4.9-0.7l0.4,9.9l4.9-0.7l-0.5-14.8l-5.3-4.3l13.3-36.6l-0.8-14.8l-4.8,5.6l-4.9,0.7l-5-4.3L160.1,84l4.9-0.7l5.3,4.3l4.9-0.7
				L184.5,75.8z M336.3,279.5l5.7,14.2l4.9-0.7c-1-17.6,13.3-64.3,42.8-140l3.6-25.4C373,161.1,354,211.8,336.3,279.5z M365,46.8
				l9.8-1.3l0.4,9.9l-8.9,21.1l-5-4.3l-4.9,0.7L365,46.8z M409.8,165.2l-4.5,5.6l5.4,123.7l4.9-0.7l0.4-104.5l-5.3-4.3l4.9-0.7
				l-5-4.3l-0.4-4.9l4.8-5.6l-0.4-4.9L409.8,165.2z M411.7,423.7l1.7,39.6l4.9-0.7l3.9-25.4l-5.7-14.2L411.7,423.7z"/>
		</g>
	</g>
</g>
</svg>
